<?xml version="1.0" encoding="utf-8"?><svg viewBox="0 0 385.317 259.98" xmlns="http://www.w3.org/2000/svg" xmlns:xlink="http://www.w3.org/1999/xlink"><style>:root>svg{display:none}:root>svg:target{display:block}</style><svg viewBox="0 0 117.854 11.707" id="arrow" xmlns="http://www.w3.org/2000/svg"><g><path d="M117 6.354H0v-1h117z"/><g><path d="M111.146.708l.707-.707 6 6-.707.707z"/><path d="M111.146 11l6-6 .708.708-6 6z"/></g></g></svg><svg viewBox="0 0 18.889 17" id="call" xmlns="http://www.w3.org/2000/svg"><path d="M9.444 0a7.57 7.57 0 00-7.556 7.556V8.5A1.894 1.894 0 000 10.389v1.889a1.894 1.894 0 001.889 1.889h1.889V7.556a5.667 5.667 0 0111.333 0v7.556H11.25a1.416 1.416 0 10-1.435 1.883.944.944 0 00.1.006h5.194A1.9 1.9 0 0017 15.111v-.944a1.894 1.894 0 001.889-1.889v-1.889A1.894 1.894 0 0017 8.5v-.944A7.57 7.57 0 009.444 0z"/></svg><svg viewBox="0 0 385.317 259.98" id="cat-line" xmlns="http://www.w3.org/2000/svg"><path d="M384.756 259.98H.002l2.7-1.828L384.197 0l1.121 1.656L6.525 257.98h378.231z"/></svg><svg viewBox="0 0 16 16.003" id="inst" xmlns="http://www.w3.org/2000/svg"><g><path d="M15.96 4.7a5.848 5.848 0 00-.372-1.941A4.1 4.1 0 0013.246.422 5.863 5.863 0 0011.305.05C10.451.009 10.176 0 8.003 0s-2.445.009-3.3.047a5.849 5.849 0 00-1.939.372 3.9 3.9 0 00-1.419.925A3.94 3.94 0 00.422 2.76 5.863 5.863 0 00.051 4.7C.01 5.558 0 5.83 0 8s.01 2.448.051 3.3a5.847 5.847 0 00.372 1.941 4.1 4.1 0 002.338 2.343 5.863 5.863 0 001.941.372C5.551 15.994 5.828 16 8 16s2.445-.009 3.3-.047a5.846 5.846 0 001.941-.372 4.093 4.093 0 002.342-2.341 5.867 5.867 0 00.368-1.94c.037-.853.047-1.125.047-3.3s-.001-2.442-.038-3.3zm-1.441 6.534a4.386 4.386 0 01-.275 1.485 2.655 2.655 0 01-1.519 1.519 4.4 4.4 0 01-1.485.275c-.844.038-1.1.047-3.232.047s-2.392-.009-3.233-.047a4.384 4.384 0 01-1.485-.275 2.463 2.463 0 01-.919-.6 2.488 2.488 0 01-.6-.919 4.4 4.4 0 01-.275-1.485c-.038-.844-.047-1.1-.047-3.233s.009-2.392.047-3.232a4.384 4.384 0 01.275-1.485 2.432 2.432 0 01.6-.919 2.484 2.484 0 01.919-.6A4.4 4.4 0 014.777 1.5c.844-.037 1.1-.047 3.232-.047s2.392.009 3.233.047a4.386 4.386 0 011.485.275 2.461 2.461 0 01.919.6 2.487 2.487 0 01.6.919 4.4 4.4 0 01.275 1.485c.037.844.047 1.1.047 3.232s-.017 2.384-.05 3.228zm0 0"/><path d="M8.003 3.892a4.111 4.111 0 104.111 4.111 4.112 4.112 0 00-4.111-4.111zm0 6.778a2.667 2.667 0 112.667-2.667 2.667 2.667 0 01-2.667 2.667zm0 0"/><path d="M13.237 3.729a.96.96 0 11-.96-.96.96.96 0 01.96.96zm0 0"/></g></svg><svg viewBox="0 0 14 20" id="marker" xmlns="http://www.w3.org/2000/svg"><path d="M7 0a7 7 0 00-7 7c0 5 7 13 7 13s7-8 7-13a7 7 0 00-7-7zm0 9.5A2.5 2.5 0 119.5 7 2.5 2.5 0 017 9.5z"/></svg><svg viewBox="0 0 174 165" id="polygon_red" xmlns="http://www.w3.org/2000/svg"><path d="M60.44 1L17.466 32.131 1.052 82.5l16.414 50.369L60.44 164h53.12l42.974-31.131L172.948 82.5l-16.414-50.369L113.56 1H60.44m-.324-1h53.769l43.5 31.512L174 82.5l-16.616 50.988-43.5 31.512H60.116l-43.5-31.512L0 82.5l16.616-50.988z"/></svg><svg viewBox="0 0 146 137" id="polygon_white" xmlns="http://www.w3.org/2000/svg"><path d="M73 1.058L26.021 17.351 1.053 58.558 9.72 105.4 48 136h50l38.278-30.6 8.668-46.839-24.967-41.21L73 1.058M73 0l47.647 16.524L146 58.365l-8.8 47.58L98.353 137H47.647L8.8 105.945 0 58.365l25.353-41.841z"/></svg></svg>