<svg xmlns="http://www.w3.org/2000/svg" width="18.889" height="17" viewBox="0 0 18.889 17">
  <path id="call" d="M11.444,3a7.57,7.57,0,0,0-7.556,7.556V11.5A1.894,1.894,0,0,0,2,13.389v1.889a1.894,1.894,0,0,0,1.889,1.889H5.778V10.556a5.667,5.667,0,0,1,11.333,0v7.556H13.25a1.416,1.416,0,1,0-1.435,1.883.944.944,0,0,0,.1.006h5.194A1.9,1.9,0,0,0,19,18.111v-.944a1.894,1.894,0,0,0,1.889-1.889V13.389A1.894,1.894,0,0,0,19,11.5v-.944A7.57,7.57,0,0,0,11.444,3Z" transform="translate(-2 -3)" fill="#b72d2d"/>
</svg>
